<?xml version="1.0" encoding="UTF-8" standalone="no"?>
<!DOCTYPE svg PUBLIC "-//W3C//DTD SVG 1.1//EN" "http://www.w3.org/Graphics/SVG/1.1/DTD/svg11.dtd">
<svg width="100%" height="100%" viewBox="0 0 101 100" version="1.1" xmlns="http://www.w3.org/2000/svg" xmlns:xlink="http://www.w3.org/1999/xlink" xml:space="preserve" xmlns:serif="http://www.serif.com/" style="fill-rule:evenodd;clip-rule:evenodd;stroke-linejoin:round;stroke-miterlimit:2;">
    <g transform="matrix(1,0,0,1,-337,0)">
        <g id="Manhattan-neighborhoods-outline" serif:id="Manhattan neighborhoods outline" transform="matrix(1,0,0,1,337.733,0)">
            <rect x="0" y="0" width="100" height="100" style="fill:none;"/>
            <g transform="matrix(1,0,0,1,-125.004,0)">
                <g id="Manhattan-island" serif:id="Manhattan island">
                    <path d="M167.266,5.694C167.277,5.657 167.29,5.62 167.302,5.587C167.433,5.228 167.699,4.808 168.493,4.763C169.197,4.723 169.68,4.779 170.047,4.971C170.428,5.17 170.698,5.514 170.94,6.082C171.182,6.649 171.254,7.477 171.226,8.136C171.206,8.599 171.133,8.98 171.049,9.15C171.019,9.21 170.959,9.272 170.872,9.326C170.84,9.345 170.774,9.392 170.757,9.404C170.759,9.412 170.762,9.428 170.766,9.44C170.788,9.501 170.833,9.573 170.904,9.663C170.995,9.778 171.034,9.946 171.016,10.145C170.99,10.442 170.83,10.834 170.79,11.069C170.773,11.174 170.787,11.377 170.795,11.589C170.804,11.846 170.805,12.112 170.765,12.278C170.721,12.463 170.617,12.565 170.51,12.601C170.425,12.629 170.316,12.631 170.188,12.551C170.04,12.459 169.876,12.35 169.732,12.273C169.787,12.445 169.926,12.613 170.149,12.661C170.402,12.715 170.521,12.895 170.543,13.138C170.567,13.404 170.435,13.771 170.372,13.926C170.416,14.199 170.567,15.163 170.57,15.549C170.573,15.972 170.57,19.208 170.57,19.503C170.615,19.762 171.048,22.28 171.075,22.987L171.176,24.525C171.628,25.232 176.362,32.65 177.6,35.214C177.612,35.239 177.649,35.265 177.694,35.303C177.81,35.4 177.981,35.517 178.182,35.645C179.014,36.175 180.323,36.867 180.514,37.029C180.71,37.194 181.93,38.437 182.435,39.578C182.679,40.129 182.75,40.661 182.543,41.066C181.978,42.174 181.408,43.223 181.62,44.438C181.852,45.765 181.291,47.234 180.969,47.886C180.935,47.956 180.938,48.031 180.958,48.109C180.988,48.221 181.053,48.336 181.134,48.45C181.423,48.86 181.911,49.251 182.125,49.472C182.363,49.718 182.866,50.005 183.078,50.72C183.218,51.192 183.234,51.857 182.937,52.834C182.248,55.092 181.8,60.696 181.778,61.107C181.756,61.529 181.626,64.252 181.417,64.828C181.219,65.374 181.023,68.349 181.104,68.769C181.185,69.188 181.381,70.61 181.825,71.289C182.287,71.997 182.636,72.567 182.636,72.567C182.684,72.644 182.685,72.741 182.641,72.82C182.596,72.899 182.512,72.948 182.421,72.947L182.02,72.945C182.29,73.37 182.736,74.028 183.039,74.265C183.268,74.444 183.576,74.556 183.877,74.706C184.232,74.883 184.577,75.106 184.822,75.48C185.386,76.34 186.938,80.812 187.024,83.385C187.031,83.608 186.916,83.852 186.726,84.076C186.465,84.385 186.069,84.664 185.85,84.805L185.886,84.88C185.936,84.994 185.895,85.128 185.789,85.194L183.479,86.628C183.368,86.697 183.224,86.669 183.146,86.565L183.119,86.529L180.626,88.495L180.05,89.6L180.463,89.936C180.55,90.006 180.579,90.124 180.536,90.227L180.238,90.938C180.188,91.057 180.056,91.118 179.933,91.08L179.401,90.915L178.925,92.181C178.925,92.181 178.647,92.799 178.336,93.264C178.211,93.451 178.077,93.614 177.954,93.717L178.18,93.826C178.251,93.863 178.3,93.933 178.311,94.012C178.323,94.092 178.295,94.172 178.237,94.228C177.663,94.777 176.748,94.807 175.813,94.55C175.813,94.55 175.811,94.549 175.806,94.548C175.764,94.536 175.541,94.473 175.315,94.361C175.127,94.269 174.94,94.143 174.826,93.994C174.803,93.964 174.764,93.949 174.723,93.93C174.642,93.895 174.549,93.864 174.453,93.828C174.081,93.684 173.685,93.463 173.627,92.761C173.579,92.18 173.447,92.011 173.3,91.804C173.22,91.692 173.138,91.571 173.059,91.396C172.824,90.873 171.513,87.533 171.513,87.533C171.464,87.408 171.522,87.267 171.645,87.213L172.669,86.763L171.085,82.87L170.219,83.188C170.096,83.233 169.96,83.176 169.905,83.057L169.469,82.106C169.441,82.045 169.439,81.976 169.462,81.914C169.486,81.852 169.533,81.801 169.594,81.774L170.396,81.414L168.832,78.16L168.584,78.269C168.47,78.32 168.335,78.278 168.27,78.171L167.852,77.485C167.814,77.424 167.805,77.35 167.826,77.281C167.847,77.213 167.897,77.157 167.962,77.127L168.423,76.919L168.055,76.25C168.033,76.211 168.022,76.166 168.024,76.122L168.038,75.653L167.947,75.478L167.082,75.87C167.021,75.897 166.952,75.899 166.89,75.876C166.828,75.852 166.778,75.805 166.751,75.744L165.938,73.935C165.91,73.873 165.909,73.801 165.935,73.738C165.961,73.674 166.012,73.624 166.076,73.6L166.418,73.468L166.377,73.292L165.903,71.055C165.899,71.036 165.897,71.017 165.898,70.998L165.935,69.472L165.262,69.421C165.132,69.412 165.032,69.304 165.031,69.175L165.024,68.493C165.023,68.355 165.132,68.243 165.269,68.24L165.959,68.227L165.93,67.417L165.954,65.913C165.955,65.846 165.983,65.782 166.031,65.736C166.08,65.689 166.145,65.665 166.212,65.667L166.302,65.67L166.333,63.63L166.192,63.63C166.126,63.63 166.062,63.604 166.015,63.557C165.968,63.51 165.941,63.446 165.941,63.38L165.952,58.384C165.952,58.362 165.955,58.34 165.961,58.319L166.104,57.797L165.994,57.231C165.991,57.216 165.989,57.201 165.989,57.186L165.795,43.294C165.795,43.294 165.743,38.038 165.712,37.742C165.686,37.492 166.019,34.987 166.133,34.143L165.574,34.126C165.507,34.124 165.443,34.095 165.398,34.047C165.352,33.998 165.328,33.932 165.331,33.866L165.43,31.533C165.436,31.4 165.544,31.295 165.677,31.294L165.985,31.29C166.049,30.596 166.184,28.358 165.483,26.529C165.191,25.767 165.018,23.584 165.002,23.286C164.999,23.225 164.939,23.135 164.87,23.025C164.656,22.687 164.286,22.255 164.125,22.133C164.012,22.046 163.859,21.842 163.713,21.61C163.529,21.318 163.348,20.98 163.261,20.873C163.113,20.692 163.109,20.411 163.24,20.092C163.368,19.78 163.616,19.414 163.796,19.111C163.848,19.023 163.894,18.941 163.926,18.868C163.944,18.829 163.96,18.797 163.962,18.771C163.952,18.57 163.779,15.04 163.844,14.486C163.89,14.096 163.915,12.633 163.897,11.693C163.89,11.32 163.881,11.036 163.857,10.957C163.766,10.662 163.072,9.325 163.033,8.399C163.005,7.751 162.955,7.088 163.008,6.662C163.039,6.416 163.113,6.234 163.211,6.132C163.293,6.046 163.34,5.937 163.405,5.833C163.546,5.608 163.735,5.391 164.209,5.307C164.509,5.253 164.72,5.122 164.887,5.071C165.044,5.024 165.18,5.028 165.303,5.092C165.407,5.146 165.515,5.251 165.607,5.461C165.722,5.722 165.825,6.028 165.97,6.251C166.06,6.389 166.163,6.498 166.331,6.459C166.37,6.45 166.414,6.432 166.445,6.419C166.421,6.387 166.384,6.341 166.352,6.312C166.314,6.279 166.273,6.247 166.231,6.217C166.12,6.141 166.022,6.066 165.961,6.001C165.912,5.948 165.881,5.896 165.863,5.849C165.816,5.719 165.835,5.599 165.952,5.494C165.996,5.454 166.069,5.41 166.186,5.379C166.292,5.351 166.451,5.329 166.681,5.317C166.951,5.303 167.081,5.404 167.177,5.538C167.21,5.584 167.237,5.638 167.266,5.694ZM170.615,8.895C170.674,8.746 170.711,8.457 170.726,8.115C170.751,7.526 170.697,6.785 170.481,6.279C170.295,5.844 170.107,5.566 169.816,5.414C169.511,5.255 169.106,5.229 168.522,5.262C168.242,5.278 168.061,5.357 167.945,5.471C167.756,5.657 167.728,5.912 167.682,6.056C167.624,6.236 167.522,6.327 167.422,6.355C167.344,6.376 167.237,6.376 167.106,6.284C166.988,6.201 166.916,6.101 166.86,6C166.841,5.964 166.824,5.929 166.807,5.895C166.793,5.867 166.785,5.837 166.762,5.82C166.75,5.81 166.732,5.815 166.706,5.816C166.646,5.82 166.593,5.823 166.545,5.827C166.674,5.921 166.792,6.031 166.866,6.14C166.946,6.258 166.98,6.381 166.968,6.492C166.95,6.658 166.831,6.855 166.445,6.946C166.114,7.023 165.866,6.907 165.668,6.68C165.45,6.431 165.304,6.014 165.149,5.662C165.131,5.621 165.114,5.588 165.095,5.561C165.09,5.555 165.083,5.546 165.078,5.541C165.057,5.546 164.989,5.564 164.943,5.582C164.775,5.65 164.567,5.751 164.296,5.799C163.967,5.857 163.871,6.024 163.78,6.18C163.718,6.287 163.656,6.39 163.572,6.478C163.549,6.502 163.54,6.542 163.528,6.589C163.507,6.675 163.496,6.779 163.49,6.898C163.468,7.3 163.51,7.844 163.533,8.378C163.57,9.26 164.248,10.528 164.335,10.809C164.355,10.875 164.375,11.055 164.386,11.306C164.423,12.195 164.394,14.088 164.341,14.545C164.285,15.014 164.408,17.672 164.449,18.505C164.457,18.529 164.461,18.559 164.461,18.593L164.461,18.595L164.462,18.767C164.462,18.771 164.462,18.775 164.461,18.779C164.458,18.876 164.419,19.006 164.343,19.155C164.212,19.413 163.968,19.759 163.798,20.081C163.729,20.21 163.673,20.334 163.65,20.444C163.64,20.489 163.625,20.529 163.649,20.557C163.742,20.672 163.939,21.031 164.136,21.344C164.244,21.514 164.346,21.672 164.429,21.736C164.614,21.877 165.046,22.368 165.293,22.758C165.421,22.961 165.496,23.147 165.502,23.26C165.517,23.543 165.672,25.625 165.95,26.35C166.832,28.651 166.459,31.569 166.459,31.569C166.443,31.693 166.338,31.786 166.214,31.787L165.92,31.791L165.842,33.634L166.426,33.651C166.496,33.653 166.563,33.685 166.609,33.74C166.655,33.794 166.676,33.865 166.666,33.935C166.666,33.935 166.179,37.398 166.21,37.69C166.241,37.988 166.295,43.289 166.295,43.288L166.489,57.157L166.606,57.759C166.614,57.796 166.612,57.835 166.602,57.873L166.452,58.419L166.442,63.129L166.586,63.129C166.653,63.128 166.717,63.155 166.764,63.203C166.812,63.251 166.838,63.315 166.837,63.382L166.798,65.932C166.797,65.999 166.769,66.063 166.721,66.11C166.672,66.156 166.607,66.181 166.54,66.178L166.449,66.175L166.429,67.406L166.468,68.463C166.47,68.53 166.446,68.595 166.4,68.644C166.354,68.693 166.29,68.721 166.223,68.722L165.526,68.735L165.528,68.94L166.209,68.991C166.342,69.001 166.443,69.113 166.44,69.246L166.398,70.98L166.864,73.179L166.954,73.566C166.983,73.687 166.917,73.811 166.801,73.856L166.502,73.971L167.104,75.311L167.958,74.925C168.079,74.87 168.222,74.92 168.283,75.038L168.512,75.482C168.531,75.519 168.541,75.561 168.539,75.604L168.526,76.068L168.992,76.914C169.025,76.975 169.032,77.048 169.01,77.114C168.988,77.18 168.939,77.234 168.876,77.263L168.426,77.466L168.583,77.724L168.852,77.605C168.976,77.551 169.12,77.604 169.178,77.726L170.958,81.429C170.987,81.489 170.991,81.559 170.967,81.623C170.944,81.686 170.897,81.737 170.835,81.765L170.029,82.127L170.263,82.639L171.139,82.317C171.265,82.27 171.406,82.333 171.457,82.457L173.224,86.8C173.275,86.926 173.217,87.069 173.093,87.123L172.066,87.574C172.362,88.328 173.318,90.753 173.515,91.191C173.601,91.383 173.695,91.495 173.779,91.616C173.934,91.84 174.073,92.086 174.126,92.72C174.168,93.233 174.518,93.319 174.776,93.414C174.969,93.485 175.129,93.567 175.223,93.69C175.295,93.784 175.418,93.855 175.535,93.913C175.754,94.02 175.967,94.075 175.967,94.075L175.945,94.068C176.538,94.231 177.126,94.285 177.573,94.081C177.548,94.063 177.525,94.044 177.505,94.024C177.405,93.924 177.36,93.806 177.374,93.686C177.385,93.586 177.438,93.463 177.607,93.353C177.708,93.287 177.814,93.146 177.92,92.986C178.192,92.58 178.436,92.047 178.466,91.982L179.016,90.519C179.062,90.395 179.197,90.329 179.324,90.368L179.865,90.536L180.003,90.206L179.576,89.859C179.484,89.785 179.457,89.655 179.512,89.55L180.207,88.216C180.223,88.185 180.246,88.157 180.274,88.136L183.012,85.977C183.065,85.935 183.133,85.916 183.2,85.925C183.267,85.934 183.327,85.97 183.368,86.024L183.411,86.082L185.34,84.884C185.322,84.833 185.308,84.782 185.306,84.743C185.298,84.605 185.363,84.515 185.449,84.466C185.487,84.445 185.891,84.205 186.205,83.902C186.301,83.809 186.388,83.711 186.45,83.61C186.494,83.54 186.526,83.47 186.524,83.402C186.441,80.913 184.949,76.585 184.404,75.754C184.211,75.46 183.933,75.293 183.654,75.154C183.321,74.988 182.984,74.857 182.731,74.659C182.229,74.266 181.355,72.82 181.355,72.82C181.308,72.743 181.307,72.646 181.352,72.568C181.397,72.489 181.481,72.441 181.571,72.442L181.971,72.444C181.828,72.217 181.63,71.906 181.406,71.563C180.93,70.833 180.7,69.314 180.613,68.864C180.526,68.416 180.736,65.241 180.947,64.658C181.147,64.104 181.258,61.487 181.279,61.081C181.301,60.664 181.759,54.979 182.458,52.688C182.716,51.844 182.72,51.27 182.598,50.862C182.418,50.255 181.968,50.029 181.766,49.82C181.54,49.586 181.03,49.17 180.725,48.738C180.467,48.373 180.361,47.989 180.521,47.665C180.814,47.07 181.339,45.734 181.128,44.524C180.896,43.2 181.481,42.046 182.098,40.839C182.191,40.657 182.183,40.437 182.125,40.201C182.058,39.922 181.918,39.625 181.745,39.331C181.206,38.414 180.347,37.543 180.191,37.41C180.005,37.252 178.725,36.583 177.913,36.067C177.651,35.899 177.434,35.746 177.307,35.629C177.227,35.554 177.175,35.485 177.149,35.431C175.855,32.751 170.72,24.74 170.72,24.74C170.697,24.705 170.684,24.664 170.681,24.622L170.576,23.011C170.549,22.286 170.074,19.567 170.074,19.567C170.071,19.553 170.07,19.538 170.07,19.524C170.07,19.524 170.073,15.995 170.07,15.553C170.067,15.121 169.867,13.935 169.867,13.935C169.86,13.898 169.863,13.859 169.874,13.822C169.874,13.822 170.019,13.527 170.044,13.27C170.047,13.235 170.048,13.201 170.044,13.17C170.043,13.164 170.04,13.155 170.038,13.149C169.466,13.023 169.187,12.473 169.206,12.067C169.212,11.937 169.261,11.854 169.32,11.798C169.386,11.735 169.476,11.699 169.59,11.704C169.665,11.708 169.761,11.734 169.868,11.783C169.995,11.841 170.146,11.934 170.292,12.026C170.297,11.981 170.301,11.933 170.301,11.891C170.303,11.561 170.268,11.157 170.298,10.985C170.331,10.786 170.453,10.475 170.503,10.206C170.514,10.151 170.521,10.097 170.521,10.049C170.521,10.019 170.527,9.992 170.513,9.974C170.265,9.663 170.237,9.445 170.266,9.301C170.289,9.181 170.354,9.09 170.437,9.018C170.487,8.974 170.577,8.918 170.615,8.895Z"/>
                </g>
            </g>
            <g id="neighborhoods" transform="matrix(1.09688,0,0,1.04299,-7.46887,-4.06089)">
                <path d="M48.079,30.162C48.082,30.076 48.057,29.956 47.951,29.828C47.924,29.795 47.895,29.744 47.885,29.671C47.877,29.617 47.879,29.531 47.895,29.421C47.963,28.964 48.281,27.938 48.442,27.501C48.487,27.377 48.619,27.316 48.736,27.364C48.854,27.411 48.912,27.55 48.867,27.674C48.711,28.099 48.388,29.385 48.341,29.572C48.672,30.022 48.499,30.422 48.463,30.5L48.451,30.523C48.41,30.598 48.333,30.644 48.251,30.643L44.301,30.597C44.175,30.596 44.074,30.487 44.076,30.355C44.077,30.223 44.18,30.116 44.306,30.118L48.079,30.162Z"/>
                <path d="M48.423,30.855L48.147,30.576C48.057,30.485 48.054,30.333 48.141,30.238C48.228,30.142 48.373,30.139 48.463,30.231L48.812,30.583C48.859,30.63 48.884,30.696 48.882,30.764L48.802,33.469L49.006,33.477C49.072,33.48 49.135,33.513 49.176,33.569C49.217,33.624 49.233,33.696 49.22,33.765L48.957,35.124C48.936,35.235 48.843,35.315 48.735,35.316L48.729,35.316C48.767,35.471 48.817,35.691 48.877,35.995C49.319,38.237 49.035,39.752 49.002,39.915L48.881,41.035C48.868,41.156 48.77,41.248 48.654,41.248L48.351,41.247L48.351,43.255L48.854,44.209C48.872,44.244 48.882,44.284 48.882,44.325L48.882,45.298C48.882,45.43 48.781,45.537 48.655,45.537L44.304,45.553C44.178,45.554 44.076,45.447 44.076,45.315C44.075,45.182 44.177,45.075 44.303,45.074L48.426,45.059L48.426,44.387L47.923,43.433C47.905,43.397 47.895,43.357 47.895,43.317L47.895,41.007C47.895,40.944 47.919,40.883 47.962,40.838C48.004,40.793 48.062,40.767 48.123,40.768L48.451,40.768L48.554,39.822C48.554,39.822 48.875,38.345 48.431,36.093C48.287,35.359 48.203,35.136 48.203,35.136C48.186,35.065 48.201,34.989 48.244,34.931C48.286,34.873 48.352,34.839 48.422,34.838L48.547,34.838L48.72,33.945L48.558,33.938C48.433,33.933 48.335,33.823 48.339,33.691L48.423,30.855Z"/>
                <path d="M52.632,40.432L52.665,34.799C52.665,34.667 52.768,34.56 52.894,34.561C53.02,34.562 53.121,34.67 53.12,34.802L53.087,40.675C53.086,40.807 52.984,40.914 52.858,40.913L52.424,40.911L52.407,41.815L52.822,41.818C52.883,41.819 52.941,41.844 52.984,41.89C53.026,41.936 53.05,41.997 53.049,42.061L53.007,45.317C53.006,45.448 52.904,45.554 52.778,45.553L48.653,45.537C48.528,45.537 48.426,45.429 48.426,45.296C48.427,45.164 48.529,45.057 48.655,45.058L52.554,45.073L52.59,42.296L52.173,42.293C52.112,42.293 52.054,42.267 52.012,42.221C51.969,42.175 51.946,42.113 51.947,42.049L51.973,40.665C51.975,40.534 52.077,40.429 52.202,40.43L52.632,40.432Z"/>
                <path d="M52.773,50.24L57.581,50.24C57.706,50.24 57.808,50.132 57.808,50C57.808,49.868 57.706,49.76 57.581,49.76L52.773,49.76C52.648,49.76 52.545,49.868 52.545,50C52.545,50.132 52.648,50.24 52.773,50.24Z"/>
                <path d="M52.42,61.986L52.545,45.312C52.546,45.18 52.649,45.073 52.775,45.074C52.901,45.075 53.002,45.183 53.001,45.316L52.874,62.228C52.873,62.359 52.771,62.465 52.646,62.465L49.445,62.465C49.38,62.465 49.318,62.436 49.275,62.385L48.994,62.055C48.956,62.01 48.936,61.953 48.936,61.893L49.04,45.312C49.041,45.18 49.144,45.073 49.27,45.074C49.395,45.075 49.497,45.183 49.496,45.315L49.392,61.804L49.547,61.985L52.42,61.986Z"/>
                <path d="M52.406,62.465L58.276,62.465C58.402,62.465 58.504,62.358 58.504,62.226C58.504,62.093 58.402,61.986 58.276,61.986L52.406,61.986C52.28,61.986 52.178,62.093 52.178,62.226C52.178,62.358 52.28,62.465 52.406,62.465Z"/>
                <path d="M47.798,61.986L47.8,61.863C47.802,61.731 47.905,61.626 48.03,61.627L49.087,61.635C49.212,61.636 49.314,61.745 49.313,61.877C49.312,62.009 49.209,62.116 49.083,62.115L48.252,62.108L48.25,62.23C48.248,62.361 48.147,62.465 48.023,62.465L44.419,62.465C44.293,62.465 44.191,62.358 44.191,62.226C44.191,62.093 44.293,61.986 44.419,61.986L47.798,61.986Z"/>
                <path d="M51.18,73.302L49.162,73.287C49.037,73.286 48.936,73.179 48.936,73.047L48.936,62.508C48.936,62.438 48.965,62.372 49.015,62.326L49.325,62.044L49.623,62.407L49.392,62.617L49.392,72.809L51.412,72.824C51.473,72.825 51.531,72.851 51.573,72.896C51.616,72.942 51.639,73.003 51.638,73.067L51.596,76.932C51.594,77.064 51.491,77.17 51.365,77.169C51.239,77.167 51.138,77.058 51.14,76.926L51.18,73.302Z"/>
                <path d="M54.349,68.316L54.38,62.224C54.381,62.092 54.484,61.985 54.609,61.986C54.735,61.987 54.837,62.095 54.836,62.227L54.804,68.558C54.803,68.69 54.701,68.796 54.575,68.796L53.553,68.793L53.55,70.273L54.588,70.284C54.712,70.285 54.812,70.391 54.813,70.522L54.84,74.414C54.84,74.54 54.748,74.646 54.629,74.655L54.299,74.681L54.385,75.127L54.647,75.18C54.758,75.203 54.837,75.306 54.832,75.425L54.778,76.938C54.774,77.067 54.673,77.169 54.551,77.169L51.368,77.169C51.242,77.169 51.14,77.061 51.14,76.929C51.14,76.797 51.242,76.689 51.368,76.689L54.331,76.689L54.369,75.612L54.149,75.568C54.058,75.55 53.987,75.476 53.968,75.38L53.801,74.51C53.788,74.443 53.803,74.373 53.843,74.318C53.882,74.263 53.942,74.229 54.007,74.224L54.382,74.194L54.359,70.761L53.319,70.75C53.194,70.748 53.094,70.641 53.094,70.509L53.098,68.552C53.098,68.488 53.122,68.427 53.165,68.383C53.208,68.338 53.266,68.313 53.327,68.313L54.349,68.316Z"/>
                <path d="M51.411,76.689L46.37,76.689C46.244,76.689 46.142,76.797 46.142,76.929C46.142,77.061 46.244,77.169 46.37,77.169L51.411,77.169C51.536,77.169 51.638,77.061 51.638,76.929C51.638,76.797 51.536,76.689 51.411,76.689Z"/>
                <path d="M54.612,77.169L61.42,77.169C61.546,77.169 61.648,77.061 61.648,76.929C61.648,76.797 61.546,76.689 61.42,76.689L54.612,76.689C54.486,76.689 54.384,76.797 54.384,76.929C54.384,77.061 54.486,77.169 54.612,77.169Z"/>
                <path d="M54.752,85.459L49.234,84.026C49.112,83.994 49.037,83.864 49.067,83.736C49.097,83.607 49.221,83.529 49.343,83.56L55.034,85.039C55.136,85.065 55.207,85.161 55.207,85.271L55.208,86.145L55.565,86.703C55.593,86.747 55.607,86.8 55.603,86.853L55.586,87.11L56.05,87.892L56.226,88.091C56.273,88.145 56.294,88.22 56.283,88.292L56.247,88.533L57.113,88.884C57.23,88.932 57.289,89.071 57.244,89.194C57.198,89.318 57.066,89.379 56.949,89.332L55.911,88.91C55.81,88.869 55.751,88.76 55.768,88.649L55.816,88.33L55.675,88.165L55.16,87.297C55.134,87.254 55.123,87.204 55.126,87.154L55.143,86.902L54.791,86.352C54.766,86.312 54.752,86.266 54.752,86.218L54.752,85.459Z"/>
                <path d="M55.946,84.998C55.869,81.795 53.871,77.025 53.871,77.025C53.82,76.904 53.872,76.763 53.988,76.709C54.103,76.656 54.237,76.711 54.288,76.832C54.288,76.832 56.42,81.95 56.404,85.224C56.404,85.229 56.375,85.449 56.162,85.465C55.987,85.478 55.112,85.526 55.112,85.526C54.987,85.532 54.879,85.431 54.873,85.299C54.866,85.166 54.963,85.054 55.089,85.047C55.089,85.047 55.634,85.017 55.946,84.998Z"/>
            </g>
        </g>
    </g>
</svg>
